<?xml version="1.0" encoding="UTF-8" standalone="no"?><!DOCTYPE svg PUBLIC "-//W3C//DTD SVG 1.1//EN" "http://www.w3.org/Graphics/SVG/1.1/DTD/svg11.dtd"><svg width="100%" height="100%" viewBox="0 0 648 209" version="1.1" xmlns="http://www.w3.org/2000/svg" xmlns:xlink="http://www.w3.org/1999/xlink" xml:space="preserve" xmlns:serif="http://www.serif.com/" style="fill-rule:evenodd;clip-rule:evenodd;stroke-linejoin:round;stroke-miterlimit:2;"><path d="M65.479,65.186l19.042,0l0,3.442c0,13.916 -2.539,22.913 -7.617,26.99c-5.078,4.077 -16.308,6.115 -33.691,6.115c-19.727,0 -31.86,-3.222 -36.401,-9.668c-4.541,-6.445 -6.812,-23.681 -6.812,-51.709c0,-16.503 3.076,-27.356 9.229,-32.556c6.152,-5.2 19.018,-7.8 38.598,-7.8c14.258,0 23.779,2.136 28.565,6.409c4.785,4.272 7.177,12.756 7.177,25.451l0.074,2.271l-19.043,0l0,-2.564c0,-6.543 -1.233,-10.73 -3.699,-12.561c-2.466,-1.831 -8.093,-2.746 -16.882,-2.746c-11.768,0 -18.836,1.44 -21.204,4.321c-2.368,2.881 -3.552,11.426 -3.552,25.635c0,19.14 1.062,30.469 3.186,33.984c2.124,3.516 8.996,5.274 20.617,5.274c9.424,0 15.54,-0.977 18.348,-2.93c2.807,-1.953 4.211,-6.25 4.211,-12.891l-0.146,-4.467Z" style="fill:#010101;fill-rule:nonzero;"/><path d="M134.224,0c18.164,0 29.858,3.015 35.083,9.045c5.224,6.031 7.837,19.519 7.837,40.467c0,22.9 -2.625,37.329 -7.874,43.286c-5.249,5.957 -17.957,8.935 -38.123,8.935c-18.164,0 -29.907,-2.941 -35.229,-8.825c-5.322,-5.884 -7.983,-18.836 -7.983,-38.855c0,-23.828 2.612,-38.794 7.836,-44.898c5.225,-6.103 18.042,-9.155 38.453,-9.155Zm-1.465,16.26c-12.744,0 -20.191,1.636 -22.339,4.907c-2.149,3.271 -3.223,14.6 -3.223,33.984c0,14.356 1.258,22.998 3.772,25.928c2.515,2.93 9.925,4.395 22.229,4.395c11.768,0 18.823,-1.648 21.167,-4.944c2.344,-3.296 3.516,-13.294 3.516,-29.993c0,-16.748 -1.111,-26.648 -3.333,-29.7c-2.221,-3.051 -9.485,-4.577 -21.789,-4.577Z" style="fill:#010101;fill-rule:nonzero;"/><path d="M303.091,0.879l0,99.976l-18.97,0l0,-54.493c0,-4.345 0.122,-9.277 0.366,-14.795l0.367,-7.47l0.366,-7.398l-0.586,0l-2.271,6.958l-2.197,6.958c-2.051,6.25 -3.638,10.865 -4.761,13.843l-21.972,56.397l-17.286,0l-22.192,-55.958c-1.221,-3.076 -2.832,-7.69 -4.834,-13.842l-2.27,-6.958l-2.271,-6.885l-0.586,0l0.366,7.251l0.367,7.324c0.293,5.664 0.439,10.523 0.439,14.575l0,54.493l-18.97,0l0,-99.976l30.909,0l17.871,46.289c1.22,3.223 2.832,7.837 4.834,13.843l2.197,6.958l2.27,6.885l0.66,0l2.124,-6.885l2.197,-6.885c1.806,-5.811 3.369,-10.4 4.687,-13.77l17.578,-46.435l31.568,0Z" style="fill:#010101;fill-rule:nonzero;"/><path d="M316.904,100.855l0,-99.976l45.264,0c13.525,0 22.644,2.356 27.356,7.068c4.712,4.712 7.068,13.806 7.068,27.283c0,13.378 -2.246,22.265 -6.738,26.66c-4.493,4.394 -13.575,6.591 -27.247,6.591l-4.394,0.074l-22.339,0l0,32.3l-18.97,0Zm18.97,-48.267l21.606,0c8.594,0 14.051,-0.989 16.37,-2.966c2.319,-1.978 3.479,-6.653 3.479,-14.026c0,-8.448 -0.964,-13.684 -2.893,-15.711c-1.929,-2.026 -6.946,-3.039 -15.051,-3.039l-23.511,0l0,35.742Z" style="fill:#010101;fill-rule:nonzero;"/><path d="M469.219,0.879l18.969,0l0,66.504c0,13.916 -2.673,23.12 -8.02,27.612c-5.346,4.492 -16.272,6.738 -32.775,6.738c-17.432,0 -28.858,-2.124 -34.278,-6.372c-5.42,-4.248 -8.13,-13.208 -8.13,-26.88l0,-67.602l18.97,0l0,67.602c0,7.374 1.318,12.049 3.955,14.026c2.637,1.978 8.838,2.967 18.604,2.967c10.009,0 16.296,-1.001 18.86,-3.003c2.563,-2.002 3.845,-6.909 3.845,-14.722l0,-66.87Z" style="fill:#010101;fill-rule:nonzero;"/><path d="M541.772,17.871l0,82.984l-18.969,0l0,-82.984l-28.858,0l0,-16.992l77.71,0l0,16.992l-29.883,0Z" style="fill:#010101;fill-rule:nonzero;"/><path d="M594.478,16.846l0,25.781l46.875,0l0,13.989l-46.875,0l0,28.272l49.877,0l0,15.967l-68.847,0l0,-99.976l68.408,0l0,15.967l-49.438,0Z" style="fill:#010101;fill-rule:nonzero;"/><path d="M196.394,208.391c-14,0 -23.366,-1.732 -27.837,-5.148c-4.348,-3.323 -6.552,-10.327 -6.552,-20.818l-0.048,-2.968l8.181,0l0,0.991c0,9.507 1.527,15.342 4.669,17.837c3.034,2.412 10.215,3.585 21.953,3.585c13.391,0 21.49,-1.161 24.761,-3.548c3.421,-2.495 5.084,-8.581 5.084,-18.607c0,-6.577 -1.138,-10.913 -3.478,-13.256c-2.317,-2.314 -6.791,-3.643 -13.678,-4.061l-11.735,-0.587l-11.129,-0.586c-16.137,-1.116 -23.994,-9.251 -23.994,-24.869c0,-10.836 2.293,-18.1 6.814,-21.591c4.64,-3.584 14.263,-5.4 28.6,-5.4c14.529,0 24.051,1.679 28.302,4.993c3.947,3.077 6.038,9.846 6.22,20.132l-8.209,0c-0.167,-7.744 -1.666,-12.662 -4.568,-15.011c-2.99,-2.418 -9.503,-3.593 -19.914,-3.593c-12.209,0 -19.938,1.089 -23.629,3.33c-3.881,2.358 -5.849,7.459 -5.849,15.162c0,8.678 1.539,13.904 4.707,15.977c1.876,1.228 6.478,2.963 24.7,3.832c15.192,0.668 24.899,2.558 28.853,5.621c3.818,2.957 5.754,9.951 5.754,20.786c0,11.747 -2.249,19.375 -6.684,22.674c-4.57,3.399 -15.099,5.123 -31.294,5.123Z" style="fill:#010101;fill-rule:nonzero;"/><path d="M270.755,207.366l0,-89.502l-32.593,0l0,-7.474l73.172,0l0,7.474l-32.3,0l0,89.502l-8.279,0Z" style="fill:#010101;fill-rule:nonzero;"/><path d="M331.049,180.703l48.364,0l-24.343,-67.003l-24.021,67.003Zm58.33,26.663l-7.764,-21.167l-52.708,0l-7.691,21.167l-8.74,0l35.522,-96.976l13.731,0l36.233,96.976l-8.583,0Z" style="fill:#010101;fill-rule:nonzero;"/><path d="M441.418,208.391c-16.176,0 -26.518,-2.819 -30.739,-8.38c-4.317,-5.685 -6.506,-19.587 -6.506,-41.316c0,-17.141 0.505,-28.031 1.5,-32.367c0.937,-4.084 3.699,-7.818 8.209,-11.098c5.374,-3.892 17.424,-5.865 35.812,-5.865c12.305,0 20.63,1.867 24.743,5.549c4.067,3.64 6.13,10.977 6.13,21.808l0.033,1.21l-8.201,0l-0.037,-1.611c0,-8.553 -1.449,-14 -4.429,-16.619c-2.923,-2.568 -9.033,-3.816 -18.678,-3.816c-16.601,0 -26.551,1.416 -30.419,4.33c-4,3.014 -5.944,10.713 -5.944,23.537c0,28.575 1.224,44.94 3.744,50.031c2.692,5.441 11.157,8.086 25.881,8.086c13.7,0 22.097,-1.108 25.671,-3.385c3.794,-2.415 5.639,-8.004 5.639,-17.085l-0.11,-4.433l8.168,0l0,2.309c0,13.055 -2.134,21.235 -6.342,24.313c-4.356,3.187 -15.837,4.802 -34.125,4.802Z" style="fill:#010101;fill-rule:nonzero;"/><path d="M559.882,207.366l-45.703,-46.802l-12.021,0l0,46.802l-8.279,0l0,-96.976l8.279,0l0,43.653l12.037,0l41.016,-43.653l10.436,0l-44.302,46.716l49.763,50.26l-11.226,0Z" style="fill:#010101;fill-rule:nonzero;"/><path d="M609.993,208.391c-14,0 -23.366,-1.732 -27.837,-5.148c-4.348,-3.323 -6.552,-10.327 -6.552,-20.818l-0.049,-2.968l8.182,0l0,0.991c0,9.508 1.527,15.343 4.669,17.837c3.034,2.412 10.215,3.585 21.952,3.585c13.391,0 21.49,-1.161 24.762,-3.548c3.421,-2.495 5.084,-8.581 5.084,-18.607c0,-6.577 -1.138,-10.913 -3.478,-13.256c-2.317,-2.314 -6.792,-3.643 -13.679,-4.061l-11.735,-0.587l-11.129,-0.586c-16.136,-1.116 -23.993,-9.251 -23.993,-24.869c0,-10.835 2.292,-18.1 6.814,-21.591c4.639,-3.584 14.262,-5.4 28.6,-5.4c14.529,0 24.05,1.679 28.301,4.993c3.948,3.078 6.039,9.847 6.222,20.132l-8.21,0c-0.168,-7.743 -1.667,-12.661 -4.568,-15.011c-2.99,-2.418 -9.503,-3.593 -19.915,-3.593c-12.208,0 -19.937,1.089 -23.629,3.33c-3.881,2.358 -5.849,7.459 -5.849,15.162c0,8.677 1.54,13.904 4.708,15.977c1.875,1.228 6.476,2.963 24.699,3.832c15.193,0.668 24.9,2.558 28.855,5.621c3.816,2.957 5.752,9.95 5.752,20.786c0,11.747 -2.248,19.375 -6.683,22.674c-4.57,3.399 -15.1,5.123 -31.294,5.123Z" style="fill:#010101;fill-rule:nonzero;"/></svg>